<svg width="59" height="59" viewBox="0 0 59 59" fill="none" xmlns="http://www.w3.org/2000/svg">
<rect x="0.625" y="0.625" width="57.75" height="57.75" rx="28.875" fill="url(#paint0_linear_9_103)"/>
<rect x="0.625" y="0.625" width="57.75" height="57.75" rx="28.875" stroke="url(#paint1_linear_9_103)" stroke-width="0.75"/>
<g filter="url(#filter0_f_9_103)">
<path d="M29.5 22.4531H42.4375M16.5625 22.4531H21.9531M21.9531 22.4531C21.9531 23.5969 22.4075 24.6938 23.2162 25.5025C24.025 26.3113 25.1219 26.7656 26.2656 26.7656C27.4094 26.7656 28.5063 26.3113 29.315 25.5025C30.1238 24.6938 30.5781 23.5969 30.5781 22.4531C30.5781 21.3094 30.1238 20.2125 29.315 19.4037C28.5063 18.595 27.4094 18.1406 26.2656 18.1406C25.1219 18.1406 24.025 18.595 23.2162 19.4037C22.4075 20.2125 21.9531 21.3094 21.9531 22.4531ZM16.5625 37.5469H29.5M37.0469 37.5469H42.4375M37.0469 37.5469C37.0469 38.6906 36.5925 39.7875 35.7838 40.5963C34.975 41.405 33.8781 41.8594 32.7344 41.8594C31.5906 41.8594 30.4937 41.405 29.685 40.5963C28.8762 39.7875 28.4219 38.6906 28.4219 37.5469C28.4219 36.4031 28.8762 35.3062 29.685 34.4975C30.4937 33.6887 31.5906 33.2344 32.7344 33.2344C33.8781 33.2344 34.975 33.6887 35.7838 34.4975C36.5925 35.3062 37.0469 36.4031 37.0469 37.5469Z" stroke="#BBFDFF" stroke-width="2.15625"/>
</g>
<path d="M29.5 22.4531H42.4375M16.5625 22.4531H21.9531M21.9531 22.4531C21.9531 23.5969 22.4075 24.6938 23.2162 25.5025C24.025 26.3113 25.1219 26.7656 26.2656 26.7656C27.4094 26.7656 28.5063 26.3113 29.315 25.5025C30.1238 24.6938 30.5781 23.5969 30.5781 22.4531C30.5781 21.3094 30.1238 20.2125 29.315 19.4037C28.5063 18.595 27.4094 18.1406 26.2656 18.1406C25.1219 18.1406 24.025 18.595 23.2162 19.4037C22.4075 20.2125 21.9531 21.3094 21.9531 22.4531ZM16.5625 37.5469H29.5M37.0469 37.5469H42.4375M37.0469 37.5469C37.0469 38.6906 36.5925 39.7875 35.7838 40.5963C34.975 41.405 33.8781 41.8594 32.7344 41.8594C31.5906 41.8594 30.4937 41.405 29.685 40.5963C28.8762 39.7875 28.4219 38.6906 28.4219 37.5469C28.4219 36.4031 28.8762 35.3062 29.685 34.4975C30.4937 33.6887 31.5906 33.2344 32.7344 33.2344C33.8781 33.2344 34.975 33.6887 35.7838 34.4975C36.5925 35.3062 37.0469 36.4031 37.0469 37.5469Z" stroke="#BBFDFF" stroke-width="2.15625"/>
<defs>
<filter id="filter0_f_9_103" x="7.9375" y="8.4375" width="43.125" height="43.125" filterUnits="userSpaceOnUse" color-interpolation-filters="sRGB">
<feFlood flood-opacity="0" result="BackgroundImageFix"/>
<feBlend mode="normal" in="SourceGraphic" in2="BackgroundImageFix" result="shape"/>
<feGaussianBlur stdDeviation="2.15625" result="effect1_foregroundBlur_9_103"/>
</filter>
<linearGradient id="paint0_linear_9_103" x1="29.5" y1="0.25" x2="29.5" y2="58.75" gradientUnits="userSpaceOnUse">
<stop stop-color="#648182"/>
<stop offset="1"/>
</linearGradient>
<linearGradient id="paint1_linear_9_103" x1="29.5" y1="0.25" x2="29.5" y2="58.75" gradientUnits="userSpaceOnUse">
<stop stop-color="#679395"/>
<stop offset="1" stop-color="#2A2A2A"/>
</linearGradient>
</defs>
</svg>
