<svg width="11" height="9" viewBox="0 0 11 9" fill="none" xmlns="http://www.w3.org/2000/svg">
<path d="M5.96975 0.844773C6.1104 0.70417 6.30113 0.625183 6.5 0.625183C6.69887 0.625183 6.8896 0.70417 7.03025 0.844773L10.4052 4.21977C10.5459 4.36042 10.6248 4.55115 10.6248 4.75002C10.6248 4.9489 10.5459 5.13963 10.4052 5.28027L7.03025 8.65527C6.8888 8.79189 6.69935 8.86749 6.5027 8.86578C6.30605 8.86407 6.11794 8.78519 5.97889 8.64614C5.83983 8.50708 5.76095 8.31897 5.75924 8.12232C5.75754 7.92568 5.83313 7.73622 5.96975 7.59477L8 5.50002H0.875C0.676088 5.50002 0.485322 5.42101 0.34467 5.28035C0.204018 5.1397 0.125 4.94894 0.125 4.75002C0.125 4.55111 0.204018 4.36035 0.34467 4.21969C0.485322 4.07904 0.676088 4.00002 0.875 4.00002H8L5.96975 1.90527C5.82915 1.76463 5.75016 1.5739 5.75016 1.37502C5.75016 1.17615 5.82915 0.985419 5.96975 0.844773Z" fill="black"/>
</svg>
