<svg width="59" height="60" viewBox="0 0 59 60" fill="none" xmlns="http://www.w3.org/2000/svg">
<rect x="0.375" y="1.125" width="57.75" height="57.75" rx="28.875" fill="url(#paint0_linear_9_81)"/>
<rect x="0.375" y="1.125" width="57.75" height="57.75" rx="28.875" stroke="url(#paint1_linear_9_81)" stroke-width="0.75"/>
<g filter="url(#filter0_f_9_81)">
<path d="M23.5 27.3649L29.4268 21.4367C31.044 19.8209 31.8533 19.0116 32.7446 18.3604C34.5757 17.025 36.6994 16.1463 38.9387 15.7974C40.0298 15.6249 41.1712 15.6249 43.4597 15.6249C43.579 15.6249 43.625 15.6795 43.625 15.7902C43.625 18.0758 43.625 19.2201 43.4539 20.3111C43.1046 22.5506 42.2253 24.6743 40.8894 26.5053C40.2383 27.3966 39.4289 28.2059 37.8132 29.8231L31.8849 35.7499" stroke="#BBFDFF" stroke-width="1.725" stroke-linecap="round" stroke-linejoin="round"/>
<path d="M26.8652 24.3907C24.4171 24.3907 21.3409 23.8732 19.0495 24.8219C17.3719 25.5148 16.1371 27.1248 14.875 28.3869L19.6274 30.4253C20.8866 30.9644 20.1161 32.5528 19.9077 33.5964C19.6762 34.7579 19.6892 34.8011 20.5258 35.6377L23.6121 38.7226C24.4487 39.5606 24.4919 39.5736 25.6534 39.3407C26.6956 39.1322 28.2854 38.3632 28.8245 39.6224L30.8614 44.3748C32.1236 43.1127 33.7336 41.8779 34.4279 40.2003C35.3766 37.9089 34.8591 34.8327 34.8591 32.3846M29.25 41.4998L27.8125 42.9373M17.75 29.9998L16.3125 31.4373M33.5625 18.6148C35.2875 18.8736 37.0987 19.5636 38.1064 20.5986C39.3959 21.7371 40.29 23.2723 40.635 25.6873M37.7887 21.4611L35.7187 23.5311" stroke="#BBFDFF" stroke-width="1.725" stroke-linecap="round" stroke-linejoin="round"/>
</g>
<path d="M23.5 27.3649L29.4268 21.4367C31.044 19.8209 31.8533 19.0116 32.7446 18.3604C34.5757 17.025 36.6994 16.1463 38.9387 15.7974C40.0298 15.6249 41.1712 15.6249 43.4597 15.6249C43.579 15.6249 43.625 15.6795 43.625 15.7902C43.625 18.0758 43.625 19.2201 43.4539 20.3111C43.1046 22.5506 42.2253 24.6743 40.8894 26.5053C40.2383 27.3966 39.4289 28.2059 37.8132 29.8231L31.8849 35.7499" stroke="#BBFDFF" stroke-width="1.725" stroke-linecap="round" stroke-linejoin="round"/>
<path d="M26.8652 24.3907C24.4171 24.3907 21.3409 23.8732 19.0495 24.8219C17.3719 25.5148 16.1371 27.1248 14.875 28.3869L19.6274 30.4253C20.8866 30.9644 20.1161 32.5528 19.9077 33.5964C19.6762 34.7579 19.6892 34.8011 20.5258 35.6377L23.6121 38.7226C24.4487 39.5606 24.4919 39.5736 25.6534 39.3407C26.6956 39.1322 28.2854 38.3632 28.8245 39.6224L30.8614 44.3748C32.1236 43.1127 33.7336 41.8779 34.4279 40.2003C35.3766 37.9089 34.8591 34.8327 34.8591 32.3846M29.25 41.4998L27.8125 42.9373M17.75 29.9998L16.3125 31.4373M33.5625 18.6148C35.2875 18.8736 37.0987 19.5636 38.1064 20.5986C39.3959 21.7371 40.29 23.2723 40.635 25.6873M37.7887 21.4611L35.7187 23.5311" stroke="#BBFDFF" stroke-width="1.725" stroke-linecap="round" stroke-linejoin="round"/>
<defs>
<filter id="filter0_f_9_81" x="9" y="9.75" width="40.5" height="40.5" filterUnits="userSpaceOnUse" color-interpolation-filters="sRGB">
<feFlood flood-opacity="0" result="BackgroundImageFix"/>
<feBlend mode="normal" in="SourceGraphic" in2="BackgroundImageFix" result="shape"/>
<feGaussianBlur stdDeviation="1.5" result="effect1_foregroundBlur_9_81"/>
</filter>
<linearGradient id="paint0_linear_9_81" x1="29.25" y1="0.75" x2="29.25" y2="59.25" gradientUnits="userSpaceOnUse">
<stop stop-color="#648182"/>
<stop offset="1"/>
</linearGradient>
<linearGradient id="paint1_linear_9_81" x1="29.25" y1="0.75" x2="29.25" y2="59.25" gradientUnits="userSpaceOnUse">
<stop stop-color="#679395"/>
<stop offset="1" stop-color="#2A2A2A"/>
</linearGradient>
</defs>
</svg>
