<svg width="27" height="26" viewBox="0 0 27 26" fill="none" xmlns="http://www.w3.org/2000/svg">
<path d="M7 8.66663H11.3333" stroke="black" stroke-width="1.5" stroke-linecap="round" stroke-linejoin="round"/>
<path d="M23.0691 9.75H20.2503C18.3165 9.75 16.75 11.2049 16.75 13C16.75 14.7951 18.3176 16.25 20.2492 16.25H23.0691C23.1601 16.25 23.2045 16.25 23.2424 16.2478C23.8274 16.2121 24.2932 15.7798 24.3312 15.2371C24.3333 15.2024 24.3333 15.1602 24.3333 15.0767V10.9233C24.3333 10.8398 24.3333 10.7976 24.3312 10.7629C24.2922 10.2202 23.8274 9.78792 23.2424 9.75217C23.2056 9.75 23.1601 9.75 23.0691 9.75Z" stroke="black" stroke-width="1.5"/>
<path d="M23.2121 9.74998C23.1276 7.72198 22.8567 6.47831 21.9803 5.60298C20.7117 4.33331 18.6686 4.33331 14.5833 4.33331H11.3333C7.24807 4.33331 5.20491 4.33331 3.93632 5.60298C2.66774 6.87265 2.66666 8.91473 2.66666 13C2.66666 17.0852 2.66666 19.1284 3.93632 20.397C5.20599 21.6656 7.24807 21.6666 11.3333 21.6666H14.5833C18.6686 21.6666 20.7117 21.6666 21.9803 20.397C22.8567 19.5216 23.1287 18.278 23.2121 16.25" stroke="black" stroke-width="2"/>
<path d="M19.9902 13H20.0002" stroke="black" stroke-width="2" stroke-linecap="round" stroke-linejoin="round"/>
</svg>
